<?xml version="1.0" encoding="utf-8"?>
<!-- Generator: Adobe Illustrator 19.2.1, SVG Export Plug-In . SVG Version: 6.00 Build 0)  -->
<svg version="1.1" id="Layer_1" xmlns="http://www.w3.org/2000/svg" xmlns:xlink="http://www.w3.org/1999/xlink" x="0px" y="0px"
	 viewBox="0 0 132 51" style="enable-background:new 0 0 132 51;" xml:space="preserve">
<style type="text/css">
	.st0{display:none;fill:#010202;}
	.st1{fill:#FFFFFF;}
	.st2{fill:#C2D348;}
</style>
<image style="display:none;overflow:visible;" width="134" height="51" xlink:href="2EC94886.jpg"  transform="matrix(1 0 0 1 -0.625 -0.61)">
</image>
<rect x="-24.9" y="-24.8" class="st0" width="190.3" height="86.8"/>
<g>
	<g>
		<path class="st1" d="M12.4,7.4c-0.2-2.3-1.1-4.2-3.6-4.2C7,3.2,5.4,4,5.4,6c0,0.7,0.2,1.1,0.6,1.6C6.4,7.9,6.9,8,7.3,8.2
			c2.3,0.6,6.6,1,8.2,3c1.1,1.3,1.5,2.6,1.5,4.2c0,1.2-0.5,3.2-1.3,4.3c-1,1.3-3.3,2.6-6.3,2.6c-2,0-4.2-0.9-5.2-2.6v2.2H0.2v-7.4
			h4.2c0.2,2.6,1.3,4.5,4.2,4.5c1.5,0,3-1,3-2.6c0-0.8-0.2-1.8-1-2.2c-2.4-1.2-5.3-0.9-7.6-2.4c-2-1.4-2.7-3.2-2.7-5.6
			C0,4.4,1,3.1,1.6,2.3C2.4,1.2,5,0,7.5,0c1.8,0,3.9,0.8,5,2.3V0.6h3.8v6.8H12.4z"/>
		<path class="st1" d="M23.5,12.3c0,3,1.2,6.6,4.9,6.6c2.1,0,3.6-1.4,4-3.5h5.1c-0.4,4.7-5,7-9.3,7c-1.4,0-3.2-0.4-4.4-1
			c-1.4-0.6-2.3-1.4-3.2-2.7c-1.7-2.2-2.3-5-2.3-7.6c0-5.8,3.3-11,9.8-11c2.8,0,5.5,0.8,7.5,2.8c1.7,1.8,2.2,4.8,2.4,7.2
			c0,0.6,0.1,1.2,0,1.8c0,0.1,0,0.2,0,0.3H23.5z M32.4,9.2c0-2.4-1-5.8-4-5.8c-3.4,0-4.4,3-4.7,5.8H32.4z"/>
		<path class="st1" d="M44.2,12.3c0,3,1.2,6.6,4.9,6.6c2.1,0,3.6-1.4,4-3.5h5.1c-0.4,4.7-5,7-9.3,7c-1.4,0-3.2-0.4-4.4-1
			c-1.4-0.6-2.3-1.4-3.2-2.7c-1.7-2.2-2.3-5-2.3-7.6c0-5.8,3.3-11,9.8-11c2.8,0,5.5,0.8,7.5,2.8c1.7,1.8,2.2,4.8,2.4,7.2
			c0,0.6,0.1,1.2,0,1.8c0,0.1,0,0.2,0,0.3H44.2z M53,9.2c0-2.4-1-5.8-4-5.8c-3.4,0-4.4,3-4.7,5.8H53z"/>
		<path class="st2" d="M73.7,8.6c0-1.2-0.3-2.5-1-3.4c-0.6-0.9-1.6-1.5-3-1.5c-4.2,0-4.8,4.8-4.8,8c0,3.1,1.1,7.2,4.8,7.2
			c2.3,0,3.6-2,3.8-4.1h4.6c-0.2,5.2-3.9,7.6-8.9,7.6c-6.8,0-10-5.1-10-11.4c0-2.7,0.7-5.4,2.4-7.9c1.1-1.6,3.3-3,6.4-3
			c2.5,0,4.7,0.5,5.9,3V0.6h4.1v8H73.7z"/>
		<path class="st2" d="M86.2,4c1.4-2.7,3.6-4,6.7-4c2.8,0,4.9,1.1,5.9,4c1.2-2.7,3.4-4,6.2-4c3,0,5.2,1.4,6.2,4
			c0.5,1.3,0.4,2.3,0.4,3.3v11.1h2.6v3.4h-10.4v-3.4h2.5V9c0-2.2-0.3-5-3.2-5c-1.6,0-2.7,0.7-3.4,2.2c-0.7,1.4-0.7,2.6-0.7,4.1v8.2
			h2.5v3.4H91.3v-3.4h2.4V8.6c0-1.2,0-2.1-0.5-3.2C92.8,4.5,91.8,4,90.9,4c-2.2,0-3.4,1.4-4,3.4c-0.3,1-0.3,2-0.3,3.1v8h2.6v3.4
			H78.4v-3.4h2.8V4h-2.8V0.6h7.8V4z"/>
		<path class="st2" d="M127.4,7.4c-0.2-2.3-1.1-4.2-3.6-4.2c-1.7,0-3.3,0.8-3.3,2.7c0,0.7,0.2,1.1,0.6,1.6c0.4,0.3,0.8,0.4,1.2,0.6
			c2.3,0.6,6.6,1,8.2,3c1.1,1.3,1.5,2.6,1.5,4.2c0,1.2-0.5,3.2-1.3,4.3c-1,1.3-3.3,2.6-6.3,2.6c-2,0-4.2-0.9-5.2-2.6v2.2h-3.8v-7.4
			h4.2c0.2,2.6,1.3,4.5,4.2,4.5c1.5,0,3-1,3-2.6c0-0.8-0.2-1.8-1-2.2c-2.4-1.2-5.3-0.9-7.6-2.4c-2-1.4-2.7-3.2-2.7-5.6
			c-0.2-1.8,0.8-3,1.4-3.8c0.8-1.1,3.4-2.3,5.9-2.3c1.8,0,3.9,0.8,5,2.3V0.6h3.8v6.8H127.4z"/>
	</g>
</g>
<rect x="-0.6" y="31.3" class="st1" width="134" height="0.5"/>
<g>
	<path class="st2" d="M6.2,47.7c-0.4,0.2-1.1,0.4-2,0.4c-2.2,0-3.8-1.4-3.8-3.9c0-2.4,1.6-4,4-4c1,0,1.6,0.2,1.8,0.3L6,41.3
		C5.6,41.2,5.1,41,4.5,41c-1.8,0-3,1.2-3,3.2c0,1.9,1.1,3.1,3,3.1C5,47.3,5.6,47.2,6,47L6.2,47.7z"/>
	<path class="st2" d="M11.9,45.2c0,2-1.4,2.9-2.7,2.9c-1.5,0-2.6-1.1-2.6-2.8c0-1.8,1.2-2.9,2.7-2.9C10.8,42.4,11.9,43.5,11.9,45.2z
		 M7.5,45.3c0,1.2,0.7,2.1,1.7,2.1c1,0,1.7-0.9,1.7-2.1c0-0.9-0.5-2.1-1.7-2.1S7.5,44.2,7.5,45.3z"/>
	<path class="st2" d="M12.7,44c0-0.6,0-1,0-1.5h0.9l0.1,0.9h0c0.3-0.5,0.9-1,1.8-1c0.8,0,1.9,0.5,1.9,2.3V48h-1v-3.2
		c0-0.9-0.3-1.6-1.3-1.6c-0.7,0-1.2,0.5-1.3,1c0,0.1-0.1,0.3-0.1,0.5V48h-1V44z"/>
	<path class="st2" d="M19.7,40.9v1.6h1.4v0.8h-1.4v3c0,0.7,0.2,1.1,0.8,1.1c0.3,0,0.5,0,0.6-0.1l0,0.8c-0.2,0.1-0.5,0.1-0.9,0.1
		c-0.5,0-0.8-0.1-1.1-0.4c-0.3-0.3-0.4-0.8-0.4-1.4v-3h-0.9v-0.8h0.9v-1.3L19.7,40.9z"/>
	<path class="st2" d="M22.3,45.4c0,1.4,0.9,1.9,1.9,1.9c0.7,0,1.2-0.1,1.5-0.3l0.2,0.7c-0.4,0.2-1,0.3-1.8,0.3
		c-1.7,0-2.7-1.1-2.7-2.8s1-3,2.6-3c1.8,0,2.3,1.6,2.3,2.6c0,0.2,0,0.4,0,0.5H22.3z M25.2,44.7c0-0.6-0.3-1.6-1.4-1.6
		c-1,0-1.5,0.9-1.5,1.6H25.2z"/>
	<path class="st2" d="M27,44c0-0.6,0-1,0-1.5h0.9l0.1,0.9h0c0.3-0.5,0.9-1,1.8-1c0.8,0,1.9,0.5,1.9,2.3V48h-1v-3.2
		c0-0.9-0.3-1.6-1.3-1.6c-0.7,0-1.2,0.5-1.3,1c0,0.1-0.1,0.3-0.1,0.5V48h-1V44z"/>
	<path class="st2" d="M34,40.9v1.6h1.4v0.8H34v3c0,0.7,0.2,1.1,0.8,1.1c0.3,0,0.5,0,0.6-0.1l0,0.8c-0.2,0.1-0.5,0.1-0.9,0.1
		c-0.5,0-0.8-0.1-1.1-0.4c-0.3-0.3-0.4-0.8-0.4-1.4v-3h-0.9v-0.8H33v-1.3L34,40.9z"/>
	<path class="st2" d="M46.6,44.6c-0.1-1.1-0.1-2.4-0.1-3.3h0c-0.3,0.9-0.6,1.9-1,2.9L44.1,48h-0.8l-1.2-3.7c-0.4-1.1-0.7-2.1-0.9-3
		h0c0,1-0.1,2.2-0.1,3.4L40.8,48h-0.9l0.5-7.7h1.3L43,44c0.3,0.9,0.6,1.8,0.8,2.6h0c0.2-0.8,0.5-1.6,0.8-2.6l1.4-3.7h1.3l0.5,7.7h-1
		L46.6,44.6z"/>
	<path class="st2" d="M51.9,48l-0.1-0.7h0c-0.3,0.4-0.9,0.8-1.7,0.8c-1.1,0-1.7-0.8-1.7-1.6c0-1.3,1.2-2.1,3.3-2.1v-0.1
		c0-0.5-0.1-1.3-1.3-1.3c-0.5,0-1,0.2-1.4,0.4l-0.2-0.7c0.5-0.3,1.1-0.5,1.8-0.5c1.7,0,2.1,1.2,2.1,2.3v2.1c0,0.5,0,0.9,0.1,1.3
		H51.9z M51.7,45.2c-1.1,0-2.3,0.2-2.3,1.2c0,0.7,0.4,1,0.9,1c0.7,0,1.2-0.5,1.3-0.9c0-0.1,0.1-0.2,0.1-0.3V45.2z"/>
	<path class="st2" d="M53.9,44c0-0.6,0-1,0-1.5h0.9l0.1,0.9h0c0.3-0.5,0.9-1,1.8-1c0.8,0,1.9,0.5,1.9,2.3V48h-1v-3.2
		c0-0.9-0.3-1.6-1.3-1.6c-0.7,0-1.2,0.5-1.3,1c0,0.1-0.1,0.3-0.1,0.5V48h-1V44z"/>
	<path class="st2" d="M62.8,48l-0.1-0.7h0c-0.3,0.4-0.9,0.8-1.7,0.8c-1.1,0-1.7-0.8-1.7-1.6c0-1.3,1.2-2.1,3.3-2.1v-0.1
		c0-0.5-0.1-1.3-1.3-1.3c-0.5,0-1,0.2-1.4,0.4l-0.2-0.7c0.5-0.3,1.1-0.5,1.8-0.5c1.7,0,2.1,1.2,2.1,2.3v2.1c0,0.5,0,0.9,0.1,1.3
		H62.8z M62.7,45.2c-1.1,0-2.3,0.2-2.3,1.2c0,0.7,0.4,1,0.9,1c0.7,0,1.2-0.5,1.3-0.9c0-0.1,0.1-0.2,0.1-0.3V45.2z"/>
	<path class="st2" d="M69.5,42.5c0,0.4,0,0.8,0,1.5v3.2c0,1.3-0.3,2-0.8,2.5c-0.5,0.5-1.3,0.7-2,0.7c-0.7,0-1.4-0.2-1.8-0.5l0.3-0.8
		c0.4,0.2,0.9,0.4,1.6,0.4c1,0,1.8-0.5,1.8-1.9v-0.6h0c-0.3,0.5-0.9,0.9-1.8,0.9c-1.4,0-2.3-1.2-2.3-2.7c0-1.9,1.2-2.9,2.5-2.9
		c1,0,1.5,0.5,1.7,1h0l0-0.8H69.5z M68.5,44.7c0-0.2,0-0.3-0.1-0.5c-0.2-0.6-0.7-1.1-1.4-1.1c-1,0-1.6,0.8-1.6,2.1
		c0,1.1,0.5,2,1.6,2c0.6,0,1.2-0.4,1.4-1c0.1-0.2,0.1-0.4,0.1-0.5V44.7z"/>
	<path class="st2" d="M71.3,45.4c0,1.4,0.9,1.9,1.9,1.9c0.7,0,1.2-0.1,1.5-0.3l0.2,0.7c-0.4,0.2-1,0.3-1.8,0.3
		c-1.7,0-2.7-1.1-2.7-2.8s1-3,2.6-3c1.8,0,2.3,1.6,2.3,2.6c0,0.2,0,0.4,0,0.5H71.3z M74.2,44.7c0-0.6-0.3-1.6-1.4-1.6
		c-1,0-1.5,0.9-1.5,1.6H74.2z"/>
	<path class="st2" d="M76,44c0-0.6,0-1,0-1.5h0.9l0,0.9h0c0.3-0.5,0.8-1,1.7-1c0.8,0,1.3,0.5,1.6,1.1h0c0.2-0.3,0.4-0.5,0.6-0.7
		c0.3-0.3,0.7-0.4,1.2-0.4c0.7,0,1.8,0.5,1.8,2.4V48h-1v-3.1c0-1.1-0.4-1.7-1.2-1.7c-0.6,0-1,0.4-1.2,0.9c0,0.1-0.1,0.3-0.1,0.5V48
		h-1v-3.3c0-0.9-0.4-1.5-1.2-1.5c-0.6,0-1.1,0.5-1.2,1c-0.1,0.1-0.1,0.3-0.1,0.5V48h-1V44z"/>
	<path class="st2" d="M85.6,45.4c0,1.4,0.9,1.9,1.9,1.9c0.7,0,1.2-0.1,1.5-0.3l0.2,0.7c-0.4,0.2-1,0.3-1.8,0.3
		c-1.7,0-2.7-1.1-2.7-2.8s1-3,2.6-3c1.8,0,2.3,1.6,2.3,2.6c0,0.2,0,0.4,0,0.5H85.6z M88.5,44.7c0-0.6-0.3-1.6-1.4-1.6
		c-1,0-1.5,0.9-1.5,1.6H88.5z"/>
	<path class="st2" d="M90.3,44c0-0.6,0-1,0-1.5h0.9l0.1,0.9h0c0.3-0.5,0.9-1,1.8-1c0.8,0,1.9,0.5,1.9,2.3V48h-1v-3.2
		c0-0.9-0.3-1.6-1.3-1.6c-0.7,0-1.2,0.5-1.3,1c0,0.1-0.1,0.3-0.1,0.5V48h-1V44z"/>
	<path class="st2" d="M97.3,40.9v1.6h1.4v0.8h-1.4v3c0,0.7,0.2,1.1,0.8,1.1c0.3,0,0.5,0,0.6-0.1l0,0.8c-0.2,0.1-0.5,0.1-0.9,0.1
		c-0.5,0-0.8-0.1-1.1-0.4c-0.3-0.3-0.4-0.8-0.4-1.4v-3h-0.9v-0.8h0.9v-1.3L97.3,40.9z"/>
	<path class="st2" d="M101.3,46.8c0.4,0.3,1.1,0.5,1.8,0.5c1,0,1.6-0.5,1.6-1.3c0-0.7-0.4-1.1-1.4-1.5c-1.3-0.4-2-1.1-2-2.2
		c0-1.2,1-2.1,2.5-2.1c0.8,0,1.4,0.2,1.7,0.4l-0.3,0.8c-0.3-0.1-0.8-0.4-1.5-0.4c-1,0-1.4,0.6-1.4,1.2c0,0.7,0.5,1.1,1.5,1.5
		c1.3,0.5,2,1.1,2,2.3c0,1.2-0.9,2.2-2.7,2.2c-0.7,0-1.6-0.2-2-0.5L101.3,46.8z"/>
	<path class="st2" d="M106.8,42.5l1.2,3.3c0.1,0.4,0.3,0.8,0.4,1.1h0c0.1-0.3,0.2-0.8,0.4-1.2l1.1-3.2h1.1l-1.5,3.9
		c-0.7,1.9-1.2,2.9-1.9,3.5c-0.5,0.4-1,0.6-1.2,0.6l-0.3-0.8c0.3-0.1,0.6-0.2,0.9-0.5c0.3-0.2,0.6-0.6,0.8-1.1
		c0-0.1,0.1-0.2,0.1-0.2s0-0.1-0.1-0.3l-2-5.1H106.8z"/>
	<path class="st2" d="M111.1,47c0.3,0.2,0.8,0.4,1.3,0.4c0.7,0,1.1-0.4,1.1-0.8c0-0.5-0.3-0.7-1-1c-1-0.4-1.5-0.9-1.5-1.6
		c0-0.9,0.7-1.6,1.9-1.6c0.6,0,1,0.2,1.4,0.3l-0.3,0.7c-0.2-0.1-0.6-0.3-1.1-0.3c-0.6,0-0.9,0.3-0.9,0.8c0,0.5,0.3,0.7,1,0.9
		c1,0.4,1.4,0.8,1.4,1.7c0,1-0.8,1.7-2.1,1.7c-0.6,0-1.2-0.1-1.6-0.4L111.1,47z"/>
	<path class="st2" d="M116.6,40.9v1.6h1.4v0.8h-1.4v3c0,0.7,0.2,1.1,0.8,1.1c0.3,0,0.5,0,0.6-0.1l0,0.8c-0.2,0.1-0.5,0.1-0.9,0.1
		c-0.5,0-0.8-0.1-1.1-0.4c-0.3-0.3-0.4-0.8-0.4-1.4v-3h-0.9v-0.8h0.9v-1.3L116.6,40.9z"/>
	<path class="st2" d="M119.2,45.4c0,1.4,0.9,1.9,1.9,1.9c0.7,0,1.2-0.1,1.5-0.3l0.2,0.7c-0.4,0.2-1,0.3-1.8,0.3
		c-1.7,0-2.7-1.1-2.7-2.8s1-3,2.6-3c1.8,0,2.3,1.6,2.3,2.6c0,0.2,0,0.4,0,0.5H119.2z M122.1,44.7c0-0.6-0.3-1.6-1.4-1.6
		c-1,0-1.5,0.9-1.5,1.6H122.1z"/>
	<path class="st2" d="M123.8,44c0-0.6,0-1,0-1.5h0.9l0,0.9h0c0.3-0.5,0.8-1,1.7-1c0.8,0,1.3,0.5,1.6,1.1h0c0.2-0.3,0.4-0.5,0.6-0.7
		c0.3-0.3,0.7-0.4,1.2-0.4c0.7,0,1.8,0.5,1.8,2.4V48h-1v-3.1c0-1.1-0.4-1.7-1.2-1.7c-0.6,0-1,0.4-1.2,0.9c0,0.1-0.1,0.3-0.1,0.5V48
		h-1v-3.3c0-0.9-0.4-1.5-1.2-1.5c-0.6,0-1.1,0.5-1.2,1c-0.1,0.1-0.1,0.3-0.1,0.5V48h-1V44z"/>
</g>
</svg>
