<?xml version="1.0" encoding="utf-8"?>
<!-- Generator: Adobe Illustrator 19.2.1, SVG Export Plug-In . SVG Version: 6.00 Build 0)  -->
<svg version="1.1" id="Layer_1" xmlns="http://www.w3.org/2000/svg" xmlns:xlink="http://www.w3.org/1999/xlink" x="0px" y="0px"
	 viewBox="0 0 22.8 131.7" style="enable-background:new 0 0 22.8 131.7;" xml:space="preserve">
<style type="text/css">
	.st0{fill:#FFFFFF;}
	.st1{fill:#C2D348;}
</style>
<g>
	<path class="st0" d="M7.4,119.5c-2.3,0.2-4.2,1.1-4.2,3.6c0,1.7,0.7,3.3,2.7,3.3c0.7,0,1.1-0.2,1.6-0.6c0.3-0.4,0.4-0.8,0.6-1.2
		c0.6-2.3,1-6.6,3-8.1c1.3-1.1,2.6-1.5,4.2-1.5c1.2,0,3.2,0.5,4.3,1.3c1.3,1,2.6,3.3,2.6,6.3c0,2-0.9,4.2-2.7,5.2l2.2,0l0,3.8
		l-7.4,0l0-4.2c2.6-0.1,4.5-1.3,4.5-4.1c0-1.5-1-3-2.6-3c-0.8,0-1.8,0.2-2.2,1c-1.2,2.4-0.9,5.3-2.4,7.6c-1.4,2-3.2,2.7-5.6,2.7
		c-1.8,0.2-3-0.9-3.8-1.4c-1.1-0.8-2.3-3.4-2.3-5.9c0-1.8,0.8-3.9,2.3-5l-1.8,0l0-3.8l6.8,0L7.4,119.5z"/>
	<path class="st0" d="M12.3,108.3c3,0.1,6.6-1.2,6.6-4.9c0-2.1-1.4-3.6-3.5-4l0-5.1c4.7,0.4,6.9,5,6.9,9.3c0,1.4-0.5,3.2-1,4.4
		c-0.6,1.4-1.4,2.3-2.7,3.2c-2.2,1.7-5,2.3-7.6,2.3c-5.8,0-10.9-3.4-10.9-9.8c0-2.8,0.8-5.5,2.9-7.5c1.8-1.7,4.8-2.2,7.2-2.3
		c0.6,0,1.2-0.1,1.8,0c0.1,0,0.2,0,0.3,0L12.3,108.3z M9.3,99.5c-2.4,0-5.8,1-5.9,4c0,3.4,3,4.5,5.8,4.7L9.3,99.5z"/>
	<path class="st0" d="M12.4,87.7c3,0.1,6.6-1.2,6.6-4.9c0-2.1-1.4-3.6-3.5-4l0-5.1c4.7,0.4,6.9,5,6.9,9.3c0,1.4-0.5,3.2-1,4.4
		c-0.6,1.4-1.4,2.3-2.7,3.2c-2.2,1.7-5,2.3-7.6,2.3c-5.8,0-10.9-3.4-10.9-9.8c0-2.8,0.8-5.5,2.9-7.5c1.8-1.7,4.8-2.2,7.2-2.3
		c0.6,0,1.2-0.1,1.8,0c0.1,0,0.2,0,0.3,0L12.4,87.7z M9.4,78.9c-2.4,0-5.8,1-5.9,4c0,3.4,3,4.5,5.8,4.7L9.4,78.9z"/>
	<path class="st1" d="M8.8,58.2c-1.2,0-2.5,0.3-3.4,0.9c-0.9,0.6-1.5,1.6-1.5,3c0,4.2,4.8,4.8,8,4.8c3.1,0,7.2-1,7.2-4.8
		c0-2.3-2-3.6-4.1-3.8l0-4.6c5.2,0.3,7.6,4,7.6,8.9c0,6.8-5.1,10-11.4,10c-2.7,0-5.4-0.7-7.9-2.5c-1.6-1.1-3-3.3-3-6.4
		c0-2.5,0.5-4.7,3-5.9l-2.5,0l0-4.1l8,0L8.8,58.2z"/>
	<path class="st1" d="M4.3,45.7c-2.7-1.4-4-3.6-4-6.7c0-2.8,1.1-4.9,4-5.9c-2.7-1.2-4-3.5-4-6.2c0-3,1.4-5.2,4-6.2
		c1.3-0.5,2.3-0.4,3.3-0.3l11.1,0l0-2.6l3.4,0l0,10.4l-3.4,0l0-2.5l-9.5,0c-2.2,0-5,0.3-5,3.1c0,1.6,0.7,2.7,2.1,3.4
		c1.4,0.7,2.6,0.7,4.1,0.7l8.2,0l0-2.5l3.4,0l0,10.2l-3.4,0l0-2.4l-9.8,0c-1.2,0-2.1,0-3.2,0.5C4.8,39,4.3,40.1,4.3,41
		c0,2.2,1.3,3.4,3.3,4.1c1,0.3,2,0.3,3.1,0.3l8,0l0-2.6l3.4,0l0,10.7l-3.4,0l0-2.8L4.2,50.6l0,2.8l-3.4,0l0-7.8L4.3,45.7z"/>
	<path class="st1" d="M7.9,4.5C5.6,4.7,3.7,5.5,3.7,8.1c0,1.7,0.7,3.3,2.7,3.3c0.7,0,1.1-0.2,1.6-0.6c0.3-0.4,0.4-0.8,0.6-1.2
		c0.6-2.3,1-6.6,3-8.1C13,0.4,14.2,0,15.9,0c1.2,0,3.2,0.5,4.3,1.3c1.3,1,2.6,3.3,2.6,6.3c0,2-0.9,4.2-2.7,5.2l2.2,0l0,3.8l-7.4,0
		l0-4.2c2.6-0.1,4.5-1.3,4.5-4.1c0-1.5-1-3-2.6-3c-0.8,0-1.8,0.2-2.2,1c-1.2,2.4-0.9,5.3-2.4,7.6c-1.4,2-3.2,2.7-5.6,2.7
		c-1.8,0.2-3-0.9-3.8-1.4c-1.1-0.8-2.3-3.4-2.3-5.9c0-1.8,0.8-3.9,2.3-5L1,4.3l0-3.8l6.8,0L7.9,4.5z"/>
</g>
</svg>
